Coordinates
version=1
nRows=14
nColumns=24
inDegrees=yes

Units are S.I. units (second, meters, Newtons, ...)
Angles are in degrees.

endheader
time	pelvis_tilt	pelvis_list	pelvis_rotation	pelvis_tx	pelvis_ty	pelvis_tz	hip_flexion_r	hip_adduction_r	hip_rotation_r	knee_angle_r	ankle_angle_r	subtalar_angle_r	mtp_angle_r	hip_flexion_l	hip_adduction_l	hip_rotation_l	knee_angle_l	ankle_angle_l	subtalar_angle_l	mtp_angle_l	lumbar_extension	lumbar_bending	lumbar_rotation
      1.38000000	      5.12688565	     -0.72766834	      0.75837760	      0.08114803	      0.91377726	      0.01816796	     23.46605281	      1.34684454	     -5.24782541	    -31.31615230	     18.81709138	     -8.00801185	     34.95471807	    -21.59376714	      3.72764445	     -3.33056880	      1.99819173	     15.49095494	      4.20702187	     27.26035628	    -15.02532129	     -1.33167226	     -5.36076269
      1.38500000	      5.23183130	     -0.78362402	      1.01959443	      0.08912359	      0.91310558	      0.01818514	     23.19772840	      1.38011723	     -5.68111264	    -28.85322487	     18.71701169	     -7.26575568	     35.35383308	    -22.31104917	      3.53177653	     -3.64490625	      2.11951839	     15.50586289	      5.08622221	     27.73302751	    -15.15552379	     -1.28681090	     -5.62221924
      1.39000000	      5.27316508	     -0.76566882	      1.35979236	      0.09708099	      0.91231339	      0.01814244	     22.97861586	      1.31097337	     -6.18938083	    -26.43576123	     18.60534221	     -6.40813241	     35.69804864	    -22.91152988	      3.36643134	     -3.78347459	      2.15599657	     15.54735979	      5.93724059	     28.10430621	    -15.22084624	     -1.31299273	     -6.01633822
      1.39500000	      5.34938291	     -0.77816918	      1.68884485	      0.10514052	      0.91153052	      0.01815193	     22.67338419	      1.29559933	     -6.70420641	    -24.00994578	     18.43172843	     -5.55072048	     36.09860970	    -23.53683438	      3.16513020	     -3.96771838	      2.15844065	     15.61444038	      6.78279573	     28.51470027	    -15.31526854	     -1.30805413	     -6.38116008
      1.40000000	      5.43958769	     -0.79263470	      2.02560308	      0.11329154	      0.91073959	      0.01818563	     22.31640763	      1.29462562	     -7.23891791	    -21.61437847	     18.21058655	     -4.68502255	     36.57299368	    -24.15995970	      2.94854386	     -4.14793295	      2.12079849	     15.67029880	      7.60655226	     28.97329778	    -15.41659359	     -1.29917913	     -6.74594340
      1.40500000	      5.55615607	     -0.82367473	      2.35983443	      0.12154642	      0.90993612	      0.01825704	     21.90314951	      1.32993212	     -7.78288013	    -19.27353305	     17.94593443	     -3.85161342	     37.15290888	    -24.79431252	      2.70735499	     -4.35681692	      2.04268777	     15.71872572	      8.39915632	     29.52232847	    -15.53727942	     -1.27050402	     -7.11392315
      1.41000000	      5.67541824	     -0.78813888	      2.73284318	      0.12979777	      0.90913150	      0.01832962	     21.48320703	      1.29605512	     -8.34493135	    -17.05217151	     17.66823399	     -2.98181582	     37.53728220	    -25.38786623	      2.49989396	     -4.45620866	      1.88339590	     15.77561907	      9.19615460	     29.92830948	    -15.66819317	     -1.31158064	     -7.54290297
      1.41500000	      5.78543589	     -0.80979382	      3.10795397	      0.13822743	      0.90827262	      0.01845828	     21.04072073	      1.34640214	     -8.88097579	    -14.91009356	     17.37684545	     -2.24089080	     37.88054837	    -25.97875802	      2.21930614	     -4.54397907	      1.72723014	     15.86259819	      9.97468106	     30.33844501	    -15.76616036	     -1.29068475	     -7.95360266
      1.42000000	      6.00933238	     -0.84721335	      3.40971003	      0.14676102	      0.90754630	      0.01865136	     20.47259034	      1.44981398	     -9.39921796	    -12.89987878	     16.98413352	     -1.48284288	     38.43202127	    -26.69192158	      1.94867774	     -4.75600648	      1.56192919	     15.80455059	     10.72225915	     30.96687636	    -15.97940336	     -1.25379043	     -8.20065752
      1.42500000	      6.20001859	     -0.87176885	      3.75358360	      0.15536660	      0.90675951	      0.01886085	     19.94575107	      1.54429530	     -9.90105682	    -11.07085165	     16.65017505	     -0.86638883	     38.90014954	    -27.31723273	      1.65907167	     -4.91461948	      1.29250067	     15.80388085	     11.41110406	     31.59656729	    -16.15014631	     -1.22781803	     -8.57389035
      1.43000000	      6.32210773	     -0.91261651	      4.06378097	      0.16406827	      0.90587277	      0.01914235	     19.50818607	      1.67735774	    -10.29717666	     -9.42711422	     16.20081304	     -0.51437953	     40.13016909	    -27.85599648	      1.35974326	     -5.04058868	      1.00565999	     15.67828762	     11.96707369	     33.34993941	    -16.23075280	     -1.19443205	     -8.86269775
      1.43500000	      6.51324728	     -0.95168490	      4.39831438	      0.17283423	      0.90509470	      0.01937919	     19.01232621	      1.80574315	    -10.73301164	     -8.01351830	     15.93286947	     -0.06401095	     40.21938911	    -28.43753337	      1.03880238	     -5.11432601	      0.64832587	     15.64720111	     12.53879051	     33.67737399	    -16.38398387	     -1.14626876	     -9.18672650
      1.44000000	      6.65860093	     -1.01748867	      4.73375483	      0.18169241	      0.90424268	      0.01964788	     18.58808078	      1.96893027	    -11.08849442	     -6.82337480	     15.71647397	      0.15924324	     40.30396643	    -28.93643512	      0.67924728	     -5.16524082	      0.22779732	     15.65816609	     13.12222509	     34.12015450	    -16.47344324	     -1.07141440	     -9.51242805
      1.44500000	      6.92468388	     -1.11388885	      4.99283023	      0.19063614	      0.90357111	      0.01994554	     18.06559950	      2.18823586	    -11.42908058	     -5.86803912	     15.46410008	      0.45552568	     40.49408750	    -29.54947047	      0.31866854	     -5.35157822	     -0.22688890	     15.51259726	     13.68905274	     35.04215469	    -16.68345761	     -0.95861105	     -9.65398249
